<?xml version="1.0" encoding="UTF-8"?>
<svg xmlns="http://www.w3.org/2000/svg" width="1280" height="880" viewBox="0 0 1280 880" role="img" aria-labelledby="title desc">
<title id="title">Gaia AI Agent Skill Graph</title>
<desc id="desc">Canonical Gaia skill graph rendered from registry/gaia.json, with basic skills on the outer ring, extra skills in the middle ring, and ultimate skills at the core.</desc>
<defs>
<radialGradient id="bg" cx="50%" cy="45%" r="70%"><stop offset="0%" stop-color="#172554"/><stop offset="55%" stop-color="#06111f"/><stop offset="100%" stop-color="#030712"/></radialGradient>
<filter id="glow" x="-50%" y="-50%" width="200%" height="200%"><feGaussianBlur stdDeviation="4" result="blur"/><feMerge><feMergeNode in="blur"/><feMergeNode in="SourceGraphic"/></feMerge></filter>
</defs>
<rect width="1280" height="880" fill="url(#bg)"/>
<g opacity="0.32" stroke="#334155" stroke-width="1" fill="none">
<circle cx="640.0" cy="440.0" r="285"/>
<circle cx="640.0" cy="440.0" r="170"/>
<circle cx="640.0" cy="440.0" r="54"/>
</g>
<g class="edges" fill="none">
<line x1="615.034" y1="723.904" x2="492.453" y2="524.439" stroke="#a78bfa" stroke-opacity="0.32" stroke-width="1.15"/>
<line x1="872.873" y1="604.301" x2="492.453" y2="524.439" stroke="#a78bfa" stroke-opacity="0.32" stroke-width="1.15"/>
<line x1="898.967" y1="559.0" x2="492.453" y2="524.439" stroke="#a78bfa" stroke-opacity="0.32" stroke-width="1.15"/>
<line x1="615.034" y1="723.904" x2="637.594" y2="609.983" stroke="#a78bfa" stroke-opacity="0.32" stroke-width="1.15"/>
<line x1="825.952" y1="224.021" x2="637.594" y2="609.983" stroke="#a78bfa" stroke-opacity="0.32" stroke-width="1.15"/>
<line x1="920.238" y1="388.117" x2="637.594" y2="609.983" stroke="#a78bfa" stroke-opacity="0.32" stroke-width="1.15"/>
<line x1="637.594" y1="609.983" x2="475.073" y2="481.219" stroke="#a78bfa" stroke-opacity="0.32" stroke-width="1.15"/>
<line x1="592.261" y1="720.973" x2="475.073" y2="481.219" stroke="#a78bfa" stroke-opacity="0.32" stroke-width="1.15"/>
<line x1="898.259" y1="319.471" x2="475.073" y2="481.219" stroke="#a78bfa" stroke-opacity="0.32" stroke-width="1.15"/>
<line x1="923.968" y1="415.765" x2="483.369" y2="506.081" stroke="#a78bfa" stroke-opacity="0.32" stroke-width="1.15"/>
<line x1="906.98" y1="539.733" x2="483.369" y2="506.081" stroke="#a78bfa" stroke-opacity="0.32" stroke-width="1.15"/>
<line x1="920.442" y1="490.766" x2="483.369" y2="506.081" stroke="#a78bfa" stroke-opacity="0.32" stroke-width="1.15"/>
<line x1="762.638" y1="697.264" x2="508.235" y2="332.585" stroke="#a78bfa" stroke-opacity="0.32" stroke-width="1.15"/>
<line x1="819.988" y1="660.974" x2="508.235" y2="332.585" stroke="#a78bfa" stroke-opacity="0.32" stroke-width="1.15"/>
<line x1="662.373" y1="724.121" x2="508.235" y2="332.585" stroke="#a78bfa" stroke-opacity="0.32" stroke-width="1.15"/>
<line x1="492.453" y1="524.439" x2="470.209" y2="448.423" stroke="#a78bfa" stroke-opacity="0.32" stroke-width="1.15"/>
<line x1="898.967" y1="559.0" x2="470.209" y2="448.423" stroke="#a78bfa" stroke-opacity="0.32" stroke-width="1.15"/>
<line x1="923.788" y1="466.261" x2="470.209" y2="448.423" stroke="#a78bfa" stroke-opacity="0.32" stroke-width="1.15"/>
<line x1="779.499" y1="688.526" x2="693.946" y2="601.214" stroke="#a78bfa" stroke-opacity="0.32" stroke-width="1.15"/>
<line x1="914.249" y1="362.461" x2="693.946" y2="601.214" stroke="#a78bfa" stroke-opacity="0.32" stroke-width="1.15"/>
<line x1="923.788" y1="466.261" x2="693.946" y2="601.214" stroke="#a78bfa" stroke-opacity="0.32" stroke-width="1.15"/>
<line x1="739.152" y1="707.196" x2="693.946" y2="601.214" stroke="#a78bfa" stroke-opacity="0.32" stroke-width="1.15"/>
<line x1="860.637" y1="259.599" x2="693.946" y2="601.214" stroke="#a78bfa" stroke-opacity="0.32" stroke-width="1.15"/>
<line x1="806.527" y1="671.287" x2="693.946" y2="601.214" stroke="#a78bfa" stroke-opacity="0.32" stroke-width="1.15"/>
<line x1="857.419" y1="624.266" x2="809.584" y2="451.88" stroke="#a78bfa" stroke-opacity="0.32" stroke-width="1.15"/>
<line x1="898.967" y1="559.0" x2="809.584" y2="451.88" stroke="#a78bfa" stroke-opacity="0.32" stroke-width="1.15"/>
<line x1="825.952" y1="224.021" x2="809.584" y2="451.88" stroke="#a78bfa" stroke-opacity="0.32" stroke-width="1.15"/>
<line x1="692.681" y1="159.911" x2="809.584" y2="451.88" stroke="#a78bfa" stroke-opacity="0.32" stroke-width="1.15"/>
<line x1="483.369" y1="506.081" x2="586.445" y2="446.917" stroke="#fbbf24" stroke-opacity="0.32" stroke-width="1.15"/>
<line x1="914.335" y1="517.236" x2="586.445" y2="446.917" stroke="#fbbf24" stroke-opacity="0.32" stroke-width="1.15"/>
<line x1="508.235" y1="332.585" x2="586.445" y2="446.917" stroke="#fbbf24" stroke-opacity="0.32" stroke-width="1.15"/>
<line x1="508.235" y1="332.585" x2="661.846" y2="489.384" stroke="#fbbf24" stroke-opacity="0.32" stroke-width="1.15"/>
<line x1="762.638" y1="697.264" x2="661.846" y2="489.384" stroke="#fbbf24" stroke-opacity="0.32" stroke-width="1.15"/>
<line x1="662.373" y1="724.121" x2="661.846" y2="489.384" stroke="#fbbf24" stroke-opacity="0.32" stroke-width="1.15"/>
<line x1="637.594" y1="609.983" x2="602.416" y2="401.226" stroke="#fbbf24" stroke-opacity="0.32" stroke-width="1.15"/>
<line x1="470.209" y1="448.423" x2="602.416" y2="401.226" stroke="#fbbf24" stroke-opacity="0.32" stroke-width="1.15"/>
<line x1="475.073" y1="481.219" x2="602.416" y2="401.226" stroke="#fbbf24" stroke-opacity="0.32" stroke-width="1.15"/>
<line x1="761.636" y1="182.26" x2="798.481" y2="378.487" stroke="#a78bfa" stroke-opacity="0.32" stroke-width="1.15"/>
<line x1="365.442" y1="516.438" x2="798.481" y2="378.487" stroke="#a78bfa" stroke-opacity="0.32" stroke-width="1.15"/>
<line x1="762.638" y1="697.264" x2="798.481" y2="378.487" stroke="#a78bfa" stroke-opacity="0.32" stroke-width="1.15"/>
<line x1="435.853" y1="638.869" x2="592.324" y2="603.178" stroke="#a78bfa" stroke-opacity="0.32" stroke-width="1.15"/>
<line x1="857.419" y1="624.266" x2="592.324" y2="603.178" stroke="#a78bfa" stroke-opacity="0.32" stroke-width="1.15"/>
<line x1="692.681" y1="159.911" x2="592.324" y2="603.178" stroke="#a78bfa" stroke-opacity="0.32" stroke-width="1.15"/>
<line x1="923.968" y1="415.765" x2="772.975" y2="334.087" stroke="#a78bfa" stroke-opacity="0.32" stroke-width="1.15"/>
<line x1="924.986" y1="437.219" x2="772.975" y2="334.087" stroke="#a78bfa" stroke-opacity="0.32" stroke-width="1.15"/>
<line x1="914.335" y1="517.236" x2="772.975" y2="334.087" stroke="#a78bfa" stroke-opacity="0.32" stroke-width="1.15"/>
<line x1="435.853" y1="638.869" x2="805.96" y2="403.16" stroke="#a78bfa" stroke-opacity="0.32" stroke-width="1.15"/>
<line x1="479.234" y1="675.328" x2="805.96" y2="403.16" stroke="#a78bfa" stroke-opacity="0.32" stroke-width="1.15"/>
<line x1="825.952" y1="224.021" x2="805.96" y2="403.16" stroke="#a78bfa" stroke-opacity="0.32" stroke-width="1.15"/>
<line x1="393.447" y1="297.043" x2="506.349" y2="545.059" stroke="#a78bfa" stroke-opacity="0.32" stroke-width="1.15"/>
<line x1="761.636" y1="182.26" x2="506.349" y2="545.059" stroke="#a78bfa" stroke-opacity="0.32" stroke-width="1.15"/>
<line x1="406.304" y1="276.871" x2="506.349" y2="545.059" stroke="#a78bfa" stroke-opacity="0.32" stroke-width="1.15"/>
<line x1="422.22" y1="623.839" x2="739.126" y2="301.891" stroke="#a78bfa" stroke-opacity="0.32" stroke-width="1.15"/>
<line x1="906.98" y1="539.733" x2="739.126" y2="301.891" stroke="#a78bfa" stroke-opacity="0.32" stroke-width="1.15"/>
<line x1="920.442" y1="490.766" x2="739.126" y2="301.891" stroke="#a78bfa" stroke-opacity="0.32" stroke-width="1.15"/>
<line x1="644.047" y1="155.029" x2="785.117" y2="351.449" stroke="#a78bfa" stroke-opacity="0.32" stroke-width="1.15"/>
<line x1="779.438" y1="191.44" x2="785.117" y2="351.449" stroke="#a78bfa" stroke-opacity="0.32" stroke-width="1.15"/>
<line x1="898.967" y1="559.0" x2="785.117" y2="351.449" stroke="#a78bfa" stroke-opacity="0.32" stroke-width="1.15"/>
<line x1="393.693" y1="583.38" x2="710.937" y2="594.493" stroke="#a78bfa" stroke-opacity="0.32" stroke-width="1.15"/>
<line x1="761.636" y1="182.26" x2="710.937" y2="594.493" stroke="#a78bfa" stroke-opacity="0.32" stroke-width="1.15"/>
<line x1="886.71" y1="582.685" x2="710.937" y2="594.493" stroke="#a78bfa" stroke-opacity="0.32" stroke-width="1.15"/>
<line x1="875.087" y1="278.881" x2="541.798" y2="578.767" stroke="#a78bfa" stroke-opacity="0.32" stroke-width="1.15"/>
<line x1="779.438" y1="191.44" x2="541.798" y2="578.767" stroke="#a78bfa" stroke-opacity="0.32" stroke-width="1.15"/>
<line x1="898.259" y1="319.471" x2="541.798" y2="578.767" stroke="#a78bfa" stroke-opacity="0.32" stroke-width="1.15"/>
<line x1="842.151" y1="640.898" x2="805.57" y2="478.555" stroke="#a78bfa" stroke-opacity="0.32" stroke-width="1.15"/>
<line x1="898.967" y1="559.0" x2="805.57" y2="478.555" stroke="#a78bfa" stroke-opacity="0.32" stroke-width="1.15"/>
<line x1="692.681" y1="159.911" x2="805.57" y2="478.555" stroke="#a78bfa" stroke-opacity="0.32" stroke-width="1.15"/>
<line x1="772.975" y1="334.087" x2="692.13" y2="454.088" stroke="#fbbf24" stroke-opacity="0.32" stroke-width="1.15"/>
<line x1="739.126" y1="301.891" x2="692.13" y2="454.088" stroke="#fbbf24" stroke-opacity="0.32" stroke-width="1.15"/>
<line x1="355.767" y1="419.099" x2="692.13" y2="454.088" stroke="#fbbf24" stroke-opacity="0.32" stroke-width="1.15"/>
<line x1="805.96" y1="403.16" x2="644.037" y2="386.151" stroke="#fbbf24" stroke-opacity="0.32" stroke-width="1.15"/>
<line x1="371.206" y1="534.735" x2="644.037" y2="386.151" stroke="#fbbf24" stroke-opacity="0.32" stroke-width="1.15"/>
<line x1="637.594" y1="609.983" x2="644.037" y2="386.151" stroke="#fbbf24" stroke-opacity="0.32" stroke-width="1.15"/>
<line x1="506.349" y1="545.059" x2="618.356" y2="489.473" stroke="#fbbf24" stroke-opacity="0.32" stroke-width="1.15"/>
<line x1="365.442" y1="516.438" x2="618.356" y2="489.473" stroke="#fbbf24" stroke-opacity="0.32" stroke-width="1.15"/>
<line x1="508.235" y1="332.585" x2="618.356" y2="489.473" stroke="#fbbf24" stroke-opacity="0.32" stroke-width="1.15"/>
<line x1="637.594" y1="609.983" x2="542.674" y2="300.617" stroke="#a78bfa" stroke-opacity="0.32" stroke-width="1.15"/>
<line x1="923.968" y1="415.765" x2="542.674" y2="300.617" stroke="#a78bfa" stroke-opacity="0.32" stroke-width="1.15"/>
<line x1="906.98" y1="539.733" x2="542.674" y2="300.617" stroke="#a78bfa" stroke-opacity="0.32" stroke-width="1.15"/>
<line x1="689.202" y1="720.721" x2="785.409" y2="528.07" stroke="#a78bfa" stroke-opacity="0.32" stroke-width="1.15"/>
<line x1="566.038" y1="715.236" x2="785.409" y2="528.07" stroke="#a78bfa" stroke-opacity="0.32" stroke-width="1.15"/>
<line x1="662.373" y1="724.121" x2="785.409" y2="528.07" stroke="#a78bfa" stroke-opacity="0.32" stroke-width="1.15"/>
<line x1="819.988" y1="660.974" x2="661.167" y2="608.677" stroke="#a78bfa" stroke-opacity="0.32" stroke-width="1.15"/>
<line x1="638.66" y1="724.997" x2="661.167" y2="608.677" stroke="#a78bfa" stroke-opacity="0.32" stroke-width="1.15"/>
<line x1="615.034" y1="723.904" x2="753.934" y2="313.829" stroke="#a78bfa" stroke-opacity="0.32" stroke-width="1.15"/>
<line x1="500.737" y1="688.658" x2="753.934" y2="313.829" stroke="#a78bfa" stroke-opacity="0.32" stroke-width="1.15"/>
<line x1="898.967" y1="559.0" x2="733.021" y2="582.292" stroke="#a78bfa" stroke-opacity="0.32" stroke-width="1.15"/>
<line x1="886.71" y1="582.685" x2="733.021" y2="582.292" stroke="#a78bfa" stroke-opacity="0.32" stroke-width="1.15"/>
<line x1="405.597" y1="602.111" x2="678.526" y2="402.162" stroke="#fbbf24" stroke-opacity="0.32" stroke-width="1.15"/>
<line x1="637.594" y1="609.983" x2="678.526" y2="402.162" stroke="#fbbf24" stroke-opacity="0.32" stroke-width="1.15"/>
<line x1="371.206" y1="534.735" x2="678.526" y2="402.162" stroke="#fbbf24" stroke-opacity="0.32" stroke-width="1.15"/>
<line x1="908.962" y1="345.743" x2="588.167" y2="278.095" stroke="#a78bfa" stroke-opacity="0.32" stroke-width="1.15"/>
<line x1="819.988" y1="660.974" x2="588.167" y2="278.095" stroke="#a78bfa" stroke-opacity="0.32" stroke-width="1.15"/>
<line x1="914.335" y1="517.236" x2="524.485" y2="315.275" stroke="#a78bfa" stroke-opacity="0.32" stroke-width="1.15"/>
<line x1="737.176" y1="172.079" x2="524.485" y2="315.275" stroke="#a78bfa" stroke-opacity="0.32" stroke-width="1.15"/>
<line x1="923.968" y1="415.765" x2="566.292" y2="286.81" stroke="#a78bfa" stroke-opacity="0.32" stroke-width="1.15"/>
<line x1="638.66" y1="724.997" x2="566.292" y2="286.81" stroke="#a78bfa" stroke-opacity="0.32" stroke-width="1.15"/>
<line x1="779.499" y1="688.526" x2="771.012" y2="548.332" stroke="#a78bfa" stroke-opacity="0.32" stroke-width="1.15"/>
<line x1="920.238" y1="388.117" x2="771.012" y2="548.332" stroke="#a78bfa" stroke-opacity="0.32" stroke-width="1.15"/>
<line x1="914.335" y1="517.236" x2="771.012" y2="548.332" stroke="#a78bfa" stroke-opacity="0.32" stroke-width="1.15"/>
<line x1="713.017" y1="715.488" x2="482.85" y2="375.163" stroke="#a78bfa" stroke-opacity="0.32" stroke-width="1.15"/>
<line x1="914.335" y1="517.236" x2="482.85" y2="375.163" stroke="#a78bfa" stroke-opacity="0.32" stroke-width="1.15"/>
<line x1="908.962" y1="345.743" x2="482.85" y2="375.163" stroke="#a78bfa" stroke-opacity="0.32" stroke-width="1.15"/>
<line x1="914.335" y1="517.236" x2="752.816" y2="567.171" stroke="#a78bfa" stroke-opacity="0.32" stroke-width="1.15"/>
<line x1="644.047" y1="155.029" x2="752.816" y2="567.171" stroke="#a78bfa" stroke-opacity="0.32" stroke-width="1.15"/>
<line x1="689.202" y1="720.721" x2="752.816" y2="567.171" stroke="#a78bfa" stroke-opacity="0.32" stroke-width="1.15"/>
<line x1="914.335" y1="517.236" x2="713.893" y2="286.899" stroke="#a78bfa" stroke-opacity="0.32" stroke-width="1.15"/>
<line x1="739.152" y1="707.196" x2="713.893" y2="286.899" stroke="#a78bfa" stroke-opacity="0.32" stroke-width="1.15"/>
<line x1="819.988" y1="660.974" x2="612.603" y2="272.222" stroke="#a78bfa" stroke-opacity="0.32" stroke-width="1.15"/>
<line x1="638.66" y1="724.997" x2="612.603" y2="272.222" stroke="#a78bfa" stroke-opacity="0.32" stroke-width="1.15"/>
<line x1="566.038" y1="715.236" x2="612.603" y2="272.222" stroke="#a78bfa" stroke-opacity="0.32" stroke-width="1.15"/>
<line x1="638.66" y1="724.997" x2="567.743" y2="593.88" stroke="#a78bfa" stroke-opacity="0.32" stroke-width="1.15"/>
<line x1="662.373" y1="724.121" x2="567.743" y2="593.88" stroke="#a78bfa" stroke-opacity="0.32" stroke-width="1.15"/>
<line x1="592.261" y1="720.973" x2="490.887" y2="358.358" stroke="#a78bfa" stroke-opacity="0.32" stroke-width="1.15"/>
<line x1="819.988" y1="660.974" x2="490.887" y2="358.358" stroke="#a78bfa" stroke-opacity="0.32" stroke-width="1.15"/>
<line x1="819.988" y1="660.974" x2="521.73" y2="562.116" stroke="#a78bfa" stroke-opacity="0.32" stroke-width="1.15"/>
<line x1="762.638" y1="697.264" x2="521.73" y2="562.116" stroke="#a78bfa" stroke-opacity="0.32" stroke-width="1.15"/>
<line x1="914.335" y1="517.236" x2="809.525" y2="427.3" stroke="#a78bfa" stroke-opacity="0.32" stroke-width="1.15"/>
<line x1="819.988" y1="660.974" x2="809.525" y2="427.3" stroke="#a78bfa" stroke-opacity="0.32" stroke-width="1.15"/>
<line x1="637.594" y1="609.983" x2="470.245" y2="430.882" stroke="#a78bfa" stroke-opacity="0.32" stroke-width="1.15"/>
<line x1="920.238" y1="388.117" x2="470.245" y2="430.882" stroke="#a78bfa" stroke-opacity="0.32" stroke-width="1.15"/>
<line x1="825.952" y1="224.021" x2="470.245" y2="430.882" stroke="#a78bfa" stroke-opacity="0.32" stroke-width="1.15"/>
<line x1="592.261" y1="720.973" x2="611.705" y2="607.629" stroke="#a78bfa" stroke-opacity="0.32" stroke-width="1.15"/>
<line x1="920.238" y1="388.117" x2="611.705" y2="607.629" stroke="#a78bfa" stroke-opacity="0.32" stroke-width="1.15"/>
<line x1="383.48" y1="315.812" x2="611.705" y2="607.629" stroke="#a78bfa" stroke-opacity="0.32" stroke-width="1.15"/>
<line x1="805.96" y1="403.16" x2="474.989" y2="399.119" stroke="#a78bfa" stroke-opacity="0.32" stroke-width="1.15"/>
<line x1="739.126" y1="301.891" x2="474.989" y2="399.119" stroke="#a78bfa" stroke-opacity="0.32" stroke-width="1.15"/>
<line x1="923.968" y1="415.765" x2="474.989" y2="399.119" stroke="#a78bfa" stroke-opacity="0.32" stroke-width="1.15"/>
<line x1="753.934" y1="313.829" x2="797.249" y2="504.598" stroke="#a78bfa" stroke-opacity="0.32" stroke-width="1.15"/>
<line x1="739.126" y1="301.891" x2="797.249" y2="504.598" stroke="#a78bfa" stroke-opacity="0.32" stroke-width="1.15"/>
<line x1="772.975" y1="334.087" x2="693.887" y2="278.767" stroke="#a78bfa" stroke-opacity="0.32" stroke-width="1.15"/>
<line x1="914.335" y1="517.236" x2="693.887" y2="278.767" stroke="#a78bfa" stroke-opacity="0.32" stroke-width="1.15"/>
<line x1="612.603" y1="272.222" x2="661.398" y2="271.352" stroke="#a78bfa" stroke-opacity="0.32" stroke-width="1.15"/>
<line x1="906.98" y1="539.733" x2="661.398" y2="271.352" stroke="#a78bfa" stroke-opacity="0.32" stroke-width="1.15"/>
<line x1="737.176" y1="172.079" x2="661.398" y2="271.352" stroke="#a78bfa" stroke-opacity="0.32" stroke-width="1.15"/>
<line x1="612.603" y1="272.222" x2="641.076" y2="270.003" stroke="#a78bfa" stroke-opacity="0.32" stroke-width="1.15"/>
<line x1="906.98" y1="539.733" x2="641.076" y2="270.003" stroke="#a78bfa" stroke-opacity="0.32" stroke-width="1.15"/>
</g>
<g class="nodes" filter="url(#glow)">
<circle cx="566.038" cy="715.236" r="6" fill="#38bdf8" stroke="#7dd3fc" stroke-width="1.6"><title>API Call</title></circle>
<circle cx="898.259" cy="319.471" r="6" fill="#38bdf8" stroke="#7dd3fc" stroke-width="1.6"><title>Audience Model</title></circle>
<circle cx="908.962" cy="345.743" r="6" fill="#38bdf8" stroke="#7dd3fc" stroke-width="1.6"><title>Chain-of-Thought Reasoning</title></circle>
<circle cx="914.249" cy="362.461" r="6" fill="#38bdf8" stroke="#7dd3fc" stroke-width="1.6"><title>Chunk Document</title></circle>
<circle cx="920.238" cy="388.117" r="6" fill="#38bdf8" stroke="#7dd3fc" stroke-width="1.6"><title>Cite Sources</title></circle>
<circle cx="644.047" cy="155.029" r="6" fill="#38bdf8" stroke="#7dd3fc" stroke-width="1.6"><title>Classify</title></circle>
<circle cx="545.661" cy="708.933" r="6" fill="#38bdf8" stroke="#7dd3fc" stroke-width="1.6"><title>Code Execution</title></circle>
<circle cx="523.249" cy="699.989" r="6" fill="#38bdf8" stroke="#7dd3fc" stroke-width="1.6"><title>Code Explain</title></circle>
<circle cx="923.968" cy="415.765" r="6" fill="#38bdf8" stroke="#7dd3fc" stroke-width="1.6"><title>Code Generation</title></circle>
<circle cx="500.737" cy="688.658" r="6" fill="#38bdf8" stroke="#7dd3fc" stroke-width="1.6"><title>Computer Use</title></circle>
<circle cx="421.405" cy="257.13" r="6" fill="#38bdf8" stroke="#7dd3fc" stroke-width="1.6"><title>Context Compression</title></circle>
<circle cx="479.234" cy="675.328" r="6" fill="#38bdf8" stroke="#7dd3fc" stroke-width="1.6"><title>Data Visualize</title></circle>
<circle cx="453.955" cy="655.899" r="6" fill="#38bdf8" stroke="#7dd3fc" stroke-width="1.6"><title>Detect Anomaly</title></circle>
<circle cx="924.986" cy="437.219" r="6" fill="#38bdf8" stroke="#7dd3fc" stroke-width="1.6"><title>Diff Content</title></circle>
<circle cx="660.753" cy="155.757" r="6" fill="#38bdf8" stroke="#7dd3fc" stroke-width="1.6"><title>Document Editing</title></circle>
<circle cx="923.788" cy="466.261" r="6" fill="#38bdf8" stroke="#7dd3fc" stroke-width="1.6"><title>Embed Text</title></circle>
<circle cx="920.442" cy="490.766" r="6" fill="#38bdf8" stroke="#7dd3fc" stroke-width="1.6"><title>Error Interpretation</title></circle>
<circle cx="914.335" cy="517.236" r="6" fill="#38bdf8" stroke="#7dd3fc" stroke-width="1.6"><title>Evaluate Output</title></circle>
<circle cx="906.98" cy="539.733" r="6" fill="#38bdf8" stroke="#7dd3fc" stroke-width="1.6"><title>Execute Bash</title></circle>
<circle cx="898.967" cy="559.0" r="6" fill="#38bdf8" stroke="#7dd3fc" stroke-width="1.6"><title>Extract Entities</title></circle>
<circle cx="520.817" cy="181.117" r="6" fill="#38bdf8" stroke="#7dd3fc" stroke-width="1.6"><title>Few-Shot Learning</title></circle>
<circle cx="543.251" cy="171.924" r="6" fill="#38bdf8" stroke="#7dd3fc" stroke-width="1.6"><title>Fine-Tune</title></circle>
<circle cx="692.681" cy="159.911" r="6" fill="#38bdf8" stroke="#7dd3fc" stroke-width="1.6"><title>Format Output</title></circle>
<circle cx="715.975" cy="165.313" r="6" fill="#38bdf8" stroke="#7dd3fc" stroke-width="1.6"><title>Framework Upgrade</title></circle>
<circle cx="435.853" cy="638.869" r="6" fill="#38bdf8" stroke="#7dd3fc" stroke-width="1.6"><title>Generate SQL</title></circle>
<circle cx="422.22" cy="623.839" r="6" fill="#38bdf8" stroke="#7dd3fc" stroke-width="1.6"><title>Generate Test</title></circle>
<circle cx="737.176" cy="172.079" r="6" fill="#38bdf8" stroke="#7dd3fc" stroke-width="1.6"><title>Generate Text</title></circle>
<circle cx="405.597" cy="602.111" r="6" fill="#38bdf8" stroke="#7dd3fc" stroke-width="1.6"><title>Hypothesis Generation</title></circle>
<circle cx="393.693" cy="583.38" r="6" fill="#38bdf8" stroke="#7dd3fc" stroke-width="1.6"><title>Image Caption</title></circle>
<circle cx="380.964" cy="558.849" r="6" fill="#38bdf8" stroke="#7dd3fc" stroke-width="1.6"><title>Image Generate</title></circle>
<circle cx="569.865" cy="163.764" r="6" fill="#38bdf8" stroke="#7dd3fc" stroke-width="1.6"><title>Issue Triage</title></circle>
<circle cx="886.71" cy="582.685" r="6" fill="#38bdf8" stroke="#7dd3fc" stroke-width="1.6"><title>Logical Inference</title></circle>
<circle cx="440.089" cy="236.873" r="6" fill="#38bdf8" stroke="#7dd3fc" stroke-width="1.6"><title>MCP Integration</title></circle>
<circle cx="371.206" cy="534.735" r="6" fill="#38bdf8" stroke="#7dd3fc" stroke-width="1.6"><title>Math Reason</title></circle>
<circle cx="365.442" cy="516.438" r="6" fill="#38bdf8" stroke="#7dd3fc" stroke-width="1.6"><title>Memory Manage</title></circle>
<circle cx="359.102" cy="488.178" r="6" fill="#38bdf8" stroke="#7dd3fc" stroke-width="1.6"><title>OCR</title></circle>
<circle cx="356.368" cy="467.886" r="6" fill="#38bdf8" stroke="#7dd3fc" stroke-width="1.6"><title>Object Detection</title></circle>
<circle cx="355.032" cy="444.282" r="6" fill="#38bdf8" stroke="#7dd3fc" stroke-width="1.6"><title>Parallel Execution</title></circle>
<circle cx="872.873" cy="604.301" r="6" fill="#38bdf8" stroke="#7dd3fc" stroke-width="1.6"><title>Parse HTML</title></circle>
<circle cx="857.419" cy="624.266" r="6" fill="#38bdf8" stroke="#7dd3fc" stroke-width="1.6"><title>Parse JSON</title></circle>
<circle cx="842.151" cy="640.898" r="6" fill="#38bdf8" stroke="#7dd3fc" stroke-width="1.6"><title>Parse PDF</title></circle>
<circle cx="819.988" cy="660.974" r="6" fill="#38bdf8" stroke="#7dd3fc" stroke-width="1.6"><title>Plan and Decompose</title></circle>
<circle cx="456.789" cy="221.691" r="6" fill="#38bdf8" stroke="#7dd3fc" stroke-width="1.6"><title>Prompt Injection Defense</title></circle>
<circle cx="761.636" cy="182.26" r="6" fill="#38bdf8" stroke="#7dd3fc" stroke-width="1.6"><title>Question Answer</title></circle>
<circle cx="806.527" cy="671.287" r="6" fill="#38bdf8" stroke="#7dd3fc" stroke-width="1.6"><title>Rank</title></circle>
<circle cx="355.767" cy="419.099" r="6" fill="#38bdf8" stroke="#7dd3fc" stroke-width="1.6"><title>Refactor Code</title></circle>
<circle cx="359.343" cy="390.437" r="6" fill="#38bdf8" stroke="#7dd3fc" stroke-width="1.6"><title>Requirements Analysis</title></circle>
<circle cx="779.499" cy="688.526" r="6" fill="#38bdf8" stroke="#7dd3fc" stroke-width="1.6"><title>Retrieve</title></circle>
<circle cx="364.29" cy="367.828" r="6" fill="#38bdf8" stroke="#7dd3fc" stroke-width="1.6"><title>Reward Modeling</title></circle>
<circle cx="762.638" cy="697.264" r="6" fill="#38bdf8" stroke="#7dd3fc" stroke-width="1.6"><title>Route Intent</title></circle>
<circle cx="371.243" cy="345.158" r="6" fill="#38bdf8" stroke="#7dd3fc" stroke-width="1.6"><title>Schema Design</title></circle>
<circle cx="383.48" cy="315.812" r="6" fill="#38bdf8" stroke="#7dd3fc" stroke-width="1.6"><title>Scientific Visualization</title></circle>
<circle cx="739.152" cy="707.196" r="6" fill="#38bdf8" stroke="#7dd3fc" stroke-width="1.6"><title>Score Relevance</title></circle>
<circle cx="591.237" cy="159.203" r="6" fill="#38bdf8" stroke="#7dd3fc" stroke-width="1.6"><title>Self-Consistency</title></circle>
<circle cx="713.017" cy="715.488" r="6" fill="#38bdf8" stroke="#7dd3fc" stroke-width="1.6"><title>Self-Critique</title></circle>
<circle cx="613.009" cy="156.281" r="6" fill="#38bdf8" stroke="#7dd3fc" stroke-width="1.6"><title>Semantic Cache</title></circle>
<circle cx="779.438" cy="191.44" r="6" fill="#38bdf8" stroke="#7dd3fc" stroke-width="1.6"><title>Sentiment Analysis</title></circle>
<circle cx="805.96" cy="208.305" r="6" fill="#38bdf8" stroke="#7dd3fc" stroke-width="1.6"><title>Skill Discovery</title></circle>
<circle cx="393.447" cy="297.043" r="6" fill="#38bdf8" stroke="#7dd3fc" stroke-width="1.6"><title>Speech to Text</title></circle>
<circle cx="473.197" cy="208.912" r="6" fill="#38bdf8" stroke="#7dd3fc" stroke-width="1.6"><title>Statistical Analysis</title></circle>
<circle cx="689.202" cy="720.721" r="6" fill="#38bdf8" stroke="#7dd3fc" stroke-width="1.6"><title>Structured Output Generation</title></circle>
<circle cx="825.952" cy="224.021" r="6" fill="#38bdf8" stroke="#7dd3fc" stroke-width="1.6"><title>Summarize</title></circle>
<circle cx="844.275" cy="241.262" r="6" fill="#38bdf8" stroke="#7dd3fc" stroke-width="1.6"><title>Test-Driven Development</title></circle>
<circle cx="406.304" cy="276.871" r="6" fill="#38bdf8" stroke="#7dd3fc" stroke-width="1.6"><title>Text to Speech</title></circle>
<circle cx="860.637" cy="259.599" r="6" fill="#38bdf8" stroke="#7dd3fc" stroke-width="1.6"><title>Tokenize</title></circle>
<circle cx="662.373" cy="724.121" r="6" fill="#38bdf8" stroke="#7dd3fc" stroke-width="1.6"><title>Tool Select</title></circle>
<circle cx="638.66" cy="724.997" r="6" fill="#38bdf8" stroke="#7dd3fc" stroke-width="1.6"><title>Tool Use</title></circle>
<circle cx="875.087" cy="278.881" r="6" fill="#38bdf8" stroke="#7dd3fc" stroke-width="1.6"><title>Translate</title></circle>
<circle cx="887.852" cy="299.307" r="6" fill="#38bdf8" stroke="#7dd3fc" stroke-width="1.6"><title>UX Audit</title></circle>
<circle cx="496.846" cy="193.561" r="6" fill="#38bdf8" stroke="#7dd3fc" stroke-width="1.6"><title>Visual Question Answering</title></circle>
<circle cx="615.034" cy="723.904" r="6" fill="#38bdf8" stroke="#7dd3fc" stroke-width="1.6"><title>Web Search</title></circle>
<circle cx="592.261" cy="720.973" r="6" fill="#38bdf8" stroke="#7dd3fc" stroke-width="1.6"><title>Write Report</title></circle>
<circle cx="713.893" cy="286.899" r="10" fill="#a78bfa" stroke="#c4b5fd" stroke-width="1.6"><title>Agent Evaluation</title></circle>
<circle cx="739.126" cy="301.891" r="10" fill="#a78bfa" stroke="#c4b5fd" stroke-width="1.6"><title>Automated Testing</title></circle>
<circle cx="483.369" cy="506.081" r="10" fill="#a78bfa" stroke="#c4b5fd" stroke-width="1.6"><title>Autonomous Debug</title></circle>
<circle cx="753.934" cy="313.829" r="10" fill="#a78bfa" stroke="#c4b5fd" stroke-width="1.6"><title>Browser Automation</title></circle>
<circle cx="772.975" cy="334.087" r="10" fill="#a78bfa" stroke="#c4b5fd" stroke-width="1.6"><title>Code Review Pipeline</title></circle>
<circle cx="785.117" cy="351.449" r="10" fill="#a78bfa" stroke="#c4b5fd" stroke-width="1.6"><title>Content Moderation</title></circle>
<circle cx="798.481" cy="378.487" r="10" fill="#a78bfa" stroke="#c4b5fd" stroke-width="1.6"><title>Conversational Agent</title></circle>
<circle cx="805.96" cy="403.16" r="10" fill="#a78bfa" stroke="#c4b5fd" stroke-width="1.6"><title>Data Analysis</title></circle>
<circle cx="641.076" cy="270.003" r="10" fill="#a78bfa" stroke="#c4b5fd" stroke-width="1.6"><title>Deployment Automation</title></circle>
<circle cx="809.525" cy="427.3" r="10" fill="#a78bfa" stroke="#c4b5fd" stroke-width="1.6"><title>Design Review</title></circle>
<circle cx="809.584" cy="451.88" r="10" fill="#a78bfa" stroke="#c4b5fd" stroke-width="1.6"><title>Document Analyst</title></circle>
<circle cx="805.57" cy="478.555" r="10" fill="#a78bfa" stroke="#c4b5fd" stroke-width="1.6"><title>Document Digitization</title></circle>
<circle cx="797.249" cy="504.598" r="10" fill="#a78bfa" stroke="#c4b5fd" stroke-width="1.6"><title>End-to-End Testing</title></circle>
<circle cx="785.409" cy="528.07" r="10" fill="#a78bfa" stroke="#c4b5fd" stroke-width="1.6"><title>Function Calling</title></circle>
<circle cx="475.073" cy="481.219" r="10" fill="#a78bfa" stroke="#c4b5fd" stroke-width="1.6"><title>Ghostwrite</title></circle>
<circle cx="771.012" cy="548.332" r="10" fill="#a78bfa" stroke="#c4b5fd" stroke-width="1.6"><title>Grounding</title></circle>
<circle cx="752.816" cy="567.171" r="10" fill="#a78bfa" stroke="#c4b5fd" stroke-width="1.6"><title>Guardrails</title></circle>
<circle cx="733.021" cy="582.292" r="10" fill="#a78bfa" stroke="#c4b5fd" stroke-width="1.6"><title>Knowledge Graph Construction</title></circle>
<circle cx="470.209" cy="448.423" r="10" fill="#a78bfa" stroke="#c4b5fd" stroke-width="1.6"><title>Knowledge Harvest</title></circle>
<circle cx="470.245" cy="430.882" r="10" fill="#a78bfa" stroke="#c4b5fd" stroke-width="1.6"><title>Literature Review</title></circle>
<circle cx="474.989" cy="399.119" r="10" fill="#a78bfa" stroke="#c4b5fd" stroke-width="1.6"><title>ML Pipeline</title></circle>
<circle cx="482.85" cy="375.163" r="10" fill="#a78bfa" stroke="#c4b5fd" stroke-width="1.6"><title>Multi-Agent Debate</title></circle>
<circle cx="710.937" cy="594.493" r="10" fill="#a78bfa" stroke="#c4b5fd" stroke-width="1.6"><title>Multimodal Reasoning</title></circle>
<circle cx="490.887" cy="358.358" r="10" fill="#a78bfa" stroke="#c4b5fd" stroke-width="1.6"><title>PRD Generation</title></circle>
<circle cx="508.235" cy="332.585" r="10" fill="#a78bfa" stroke="#c4b5fd" stroke-width="1.6"><title>Plan and Execute</title></circle>
<circle cx="524.485" cy="315.275" r="10" fill="#a78bfa" stroke="#c4b5fd" stroke-width="1.6"><title>Prompt Optimization</title></circle>
<circle cx="693.946" cy="601.214" r="10" fill="#a78bfa" stroke="#c4b5fd" stroke-width="1.6"><title>RAG Pipeline</title></circle>
<circle cx="661.167" cy="608.677" r="10" fill="#a78bfa" stroke="#c4b5fd" stroke-width="1.6"><title>ReAct Reasoning</title></circle>
<circle cx="542.674" cy="300.617" r="10" fill="#a78bfa" stroke="#c4b5fd" stroke-width="1.6"><title>Registry Curation</title></circle>
<circle cx="661.398" cy="271.352" r="10" fill="#a78bfa" stroke="#c4b5fd" stroke-width="1.6"><title>Release Automation</title></circle>
<circle cx="637.594" cy="609.983" r="10" fill="#a78bfa" stroke="#c4b5fd" stroke-width="1.6"><title>Research</title></circle>
<circle cx="611.705" cy="607.629" r="10" fill="#a78bfa" stroke="#c4b5fd" stroke-width="1.6"><title>Scientific Writing</title></circle>
<circle cx="693.887" cy="278.767" r="10" fill="#a78bfa" stroke="#c4b5fd" stroke-width="1.6"><title>Security Audit</title></circle>
<circle cx="592.324" cy="603.178" r="10" fill="#a78bfa" stroke="#c4b5fd" stroke-width="1.6"><title>Text-to-SQL Pipeline</title></circle>
<circle cx="567.743" cy="593.88" r="10" fill="#a78bfa" stroke="#c4b5fd" stroke-width="1.6"><title>Tool Chaining</title></circle>
<circle cx="566.292" cy="286.81" r="10" fill="#a78bfa" stroke="#c4b5fd" stroke-width="1.6"><title>Tool Creation</title></circle>
<circle cx="541.798" cy="578.767" r="10" fill="#a78bfa" stroke="#c4b5fd" stroke-width="1.6"><title>Translation Pipeline</title></circle>
<circle cx="588.167" cy="278.095" r="10" fill="#a78bfa" stroke="#c4b5fd" stroke-width="1.6"><title>Tree of Thought</title></circle>
<circle cx="521.73" cy="562.116" r="10" fill="#a78bfa" stroke="#c4b5fd" stroke-width="1.6"><title>Vertical Slice Planning</title></circle>
<circle cx="506.349" cy="545.059" r="10" fill="#a78bfa" stroke="#c4b5fd" stroke-width="1.6"><title>Voice Agent</title></circle>
<circle cx="492.453" cy="524.439" r="10" fill="#a78bfa" stroke="#c4b5fd" stroke-width="1.6"><title>Web Scrape</title></circle>
<circle cx="612.603" cy="272.222" r="10" fill="#a78bfa" stroke="#c4b5fd" stroke-width="1.6"><title>Workflow Automation</title></circle>
<circle cx="644.037" cy="386.151" r="15" fill="#fbbf24" stroke="#fde68a" stroke-width="1.6"><title>Autonomous Data Scientist</title></circle>
<circle cx="602.416" cy="401.226" r="15" fill="#fbbf24" stroke="#fde68a" stroke-width="1.6"><title>Autonomous Research Agent</title></circle>
<circle cx="678.526" cy="402.162" r="15" fill="#fbbf24" stroke="#fde68a" stroke-width="1.6"><title>Autonomous Scientific Discovery</title></circle>
<circle cx="692.13" cy="454.088" r="15" fill="#fbbf24" stroke="#fde68a" stroke-width="1.6"><title>Full-Stack Developer</title></circle>
<circle cx="661.846" cy="489.384" r="15" fill="#fbbf24" stroke="#fde68a" stroke-width="1.6"><title>Multi-Agent Orchestration</title></circle>
<circle cx="618.356" cy="489.473" r="15" fill="#fbbf24" stroke="#fde68a" stroke-width="1.6"><title>Real-Time Voice Assistant</title></circle>
<circle cx="586.445" cy="446.917" r="15" fill="#fbbf24" stroke="#fde68a" stroke-width="1.6"><title>Recursive Self-Improvement</title></circle>
</g>
<g class="labels" font-family="Inter, ui-sans-serif, system-ui, sans-serif" text-anchor="middle">
<text x="898.259" y="306.5" fill="#38bdf8" font-size="10" font-weight="600" opacity="0.92">Audience Model</text>
<text x="545.661" y="695.9" fill="#38bdf8" font-size="10" font-weight="600" opacity="0.92">Code Execution</text>
<text x="923.968" y="402.8" fill="#38bdf8" font-size="10" font-weight="600" opacity="0.92">Code Generation</text>
<text x="421.405" y="244.1" fill="#38bdf8" font-size="10" font-weight="600" opacity="0.92">Context Compression</text>
<text x="660.753" y="142.8" fill="#38bdf8" font-size="10" font-weight="600" opacity="0.92">Document Editing</text>
<text x="435.853" y="625.9" fill="#38bdf8" font-size="10" font-weight="600" opacity="0.92">Generate SQL</text>
<text x="422.22" y="610.8" fill="#38bdf8" font-size="10" font-weight="600" opacity="0.92">Generate Test</text>
<text x="405.597" y="589.1" fill="#38bdf8" font-size="10" font-weight="600" opacity="0.92">Hypothesis Generation</text>
<text x="359.102" y="475.2" fill="#38bdf8" font-size="10" font-weight="600" opacity="0.92">OCR</text>
<text x="806.527" y="658.3" fill="#38bdf8" font-size="10" font-weight="600" opacity="0.92">Rank</text>
<text x="371.243" y="332.2" fill="#38bdf8" font-size="10" font-weight="600" opacity="0.92">Schema Design</text>
<text x="383.48" y="302.8" fill="#38bdf8" font-size="10" font-weight="600" opacity="0.92">Scientific Visualization</text>
<text x="779.438" y="178.4" fill="#38bdf8" font-size="10" font-weight="600" opacity="0.92">Sentiment Analysis</text>
<text x="805.96" y="195.3" fill="#38bdf8" font-size="10" font-weight="600" opacity="0.92">Skill Discovery</text>
<text x="638.66" y="712.0" fill="#38bdf8" font-size="10" font-weight="600" opacity="0.92">Tool Use</text>
<text x="592.261" y="708.0" fill="#38bdf8" font-size="10" font-weight="600" opacity="0.92">Write Report</text>
<text x="713.893" y="269.9" fill="#a78bfa" font-size="12" font-weight="600" opacity="0.92">Agent Evaluation</text>
<text x="739.126" y="284.9" fill="#a78bfa" font-size="12" font-weight="600" opacity="0.92">Automated Testing</text>
<text x="483.369" y="489.1" fill="#a78bfa" font-size="12" font-weight="600" opacity="0.92">Autonomous Debug</text>
<text x="753.934" y="296.8" fill="#a78bfa" font-size="12" font-weight="600" opacity="0.92">Browser Automation</text>
<text x="772.975" y="317.1" fill="#a78bfa" font-size="12" font-weight="600" opacity="0.92">Code Review Pipeline</text>
<text x="785.117" y="334.4" fill="#a78bfa" font-size="12" font-weight="600" opacity="0.92">Content Moderation</text>
<text x="798.481" y="361.5" fill="#a78bfa" font-size="12" font-weight="600" opacity="0.92">Conversational Agent</text>
<text x="805.96" y="386.2" fill="#a78bfa" font-size="12" font-weight="600" opacity="0.92">Data Analysis</text>
<text x="641.076" y="253.0" fill="#a78bfa" font-size="12" font-weight="600" opacity="0.92">Deployment Automation</text>
<text x="809.525" y="410.3" fill="#a78bfa" font-size="12" font-weight="600" opacity="0.92">Design Review</text>
<text x="809.584" y="434.9" fill="#a78bfa" font-size="12" font-weight="600" opacity="0.92">Document Analyst</text>
<text x="805.57" y="461.6" fill="#a78bfa" font-size="12" font-weight="600" opacity="0.92">Document Digitization</text>
<text x="797.249" y="487.6" fill="#a78bfa" font-size="12" font-weight="600" opacity="0.92">End-to-End Testing</text>
<text x="785.409" y="511.1" fill="#a78bfa" font-size="12" font-weight="600" opacity="0.92">Function Calling</text>
<text x="475.073" y="464.2" fill="#a78bfa" font-size="12" font-weight="600" opacity="0.92">Ghostwrite</text>
<text x="771.012" y="531.3" fill="#a78bfa" font-size="12" font-weight="600" opacity="0.92">Grounding</text>
<text x="752.816" y="550.2" fill="#a78bfa" font-size="12" font-weight="600" opacity="0.92">Guardrails</text>
<text x="733.021" y="565.3" fill="#a78bfa" font-size="12" font-weight="600" opacity="0.92">Knowledge Graph Construction</text>
<text x="470.209" y="431.4" fill="#a78bfa" font-size="12" font-weight="600" opacity="0.92">Knowledge Harvest</text>
<text x="470.245" y="413.9" fill="#a78bfa" font-size="12" font-weight="600" opacity="0.92">Literature Review</text>
<text x="474.989" y="382.1" fill="#a78bfa" font-size="12" font-weight="600" opacity="0.92">ML Pipeline</text>
<text x="482.85" y="358.2" fill="#a78bfa" font-size="12" font-weight="600" opacity="0.92">Multi-Agent Debate</text>
<text x="710.937" y="577.5" fill="#a78bfa" font-size="12" font-weight="600" opacity="0.92">Multimodal Reasoning</text>
<text x="490.887" y="341.4" fill="#a78bfa" font-size="12" font-weight="600" opacity="0.92">PRD Generation</text>
<text x="508.235" y="315.6" fill="#a78bfa" font-size="12" font-weight="600" opacity="0.92">Plan and Execute</text>
<text x="524.485" y="298.3" fill="#a78bfa" font-size="12" font-weight="600" opacity="0.92">Prompt Optimization</text>
<text x="693.946" y="584.2" fill="#a78bfa" font-size="12" font-weight="600" opacity="0.92">RAG Pipeline</text>
<text x="661.167" y="591.7" fill="#a78bfa" font-size="12" font-weight="600" opacity="0.92">ReAct Reasoning</text>
<text x="542.674" y="283.6" fill="#a78bfa" font-size="12" font-weight="600" opacity="0.92">Registry Curation</text>
<text x="661.398" y="254.4" fill="#a78bfa" font-size="12" font-weight="600" opacity="0.92">Release Automation</text>
<text x="637.594" y="593.0" fill="#a78bfa" font-size="12" font-weight="600" opacity="0.92">Research</text>
<text x="611.705" y="590.6" fill="#a78bfa" font-size="12" font-weight="600" opacity="0.92">Scientific Writing</text>
<text x="693.887" y="261.8" fill="#a78bfa" font-size="12" font-weight="600" opacity="0.92">Security Audit</text>
<text x="592.324" y="586.2" fill="#a78bfa" font-size="12" font-weight="600" opacity="0.92">Text-to-SQL Pipeline</text>
<text x="567.743" y="576.9" fill="#a78bfa" font-size="12" font-weight="600" opacity="0.92">Tool Chaining</text>
<text x="566.292" y="269.8" fill="#a78bfa" font-size="12" font-weight="600" opacity="0.92">Tool Creation</text>
<text x="541.798" y="561.8" fill="#a78bfa" font-size="12" font-weight="600" opacity="0.92">Translation Pipeline</text>
<text x="588.167" y="261.1" fill="#a78bfa" font-size="12" font-weight="600" opacity="0.92">Tree of Thought</text>
<text x="521.73" y="545.1" fill="#a78bfa" font-size="12" font-weight="600" opacity="0.92">Vertical Slice Planning</text>
<text x="506.349" y="528.1" fill="#a78bfa" font-size="12" font-weight="600" opacity="0.92">Voice Agent</text>
<text x="492.453" y="507.4" fill="#a78bfa" font-size="12" font-weight="600" opacity="0.92">Web Scrape</text>
<text x="612.603" y="255.2" fill="#a78bfa" font-size="12" font-weight="600" opacity="0.92">Workflow Automation</text>
<text x="644.037" y="364.2" fill="#fbbf24" font-size="16" font-weight="800" opacity="0.92">Autonomous Data Scientist</text>
<text x="602.416" y="379.2" fill="#fbbf24" font-size="16" font-weight="800" opacity="0.92">Autonomous Research Agent</text>
<text x="678.526" y="380.2" fill="#fbbf24" font-size="16" font-weight="800" opacity="0.92">Autonomous Scientific Discovery</text>
<text x="692.13" y="432.1" fill="#fbbf24" font-size="16" font-weight="800" opacity="0.92">Full-Stack Developer</text>
<text x="661.846" y="467.4" fill="#fbbf24" font-size="16" font-weight="800" opacity="0.92">Multi-Agent Orchestration</text>
<text x="618.356" y="467.5" fill="#fbbf24" font-size="16" font-weight="800" opacity="0.92">Real-Time Voice Assistant</text>
<text x="586.445" y="424.9" fill="#fbbf24" font-size="16" font-weight="800" opacity="0.92">Recursive Self-Improvement</text>
</g>
<g font-family="Inter, ui-sans-serif, system-ui, sans-serif" font-size="14" fill="#cbd5e1">
<text x="44" y="748" font-size="20" font-weight="800" fill="#e2e8f0">Gaia Skill Graph</text>
<circle cx="52" cy="765" r="6" fill="#38bdf8"/>
<text x="68" y="770">Basic: 72</text>
<circle cx="52" cy="793" r="6" fill="#a78bfa"/>
<text x="68" y="798">Extra: 42</text>
<circle cx="52" cy="821" r="6" fill="#fbbf24"/>
<text x="68" y="826">Ultimate: 7</text>
</g>
</svg>
